<svg width="23" height="36" viewBox="0 0 23 36" xmlns="http://www.w3.org/2000/svg">
<path id="marker_point" d="M13.5 33.5C13.5 34.8807 12.3807 36 11 36C9.61929 36 8.5 34.8807 8.5 33.5C8.5 32.1193 9.61929 31 11 31C12.3807 31 13.5 32.1193 13.5 33.5Z"/>
<path id="marker" d="M11.5001 30.0002C19.0952 29.9991 32.5124 0.00181909 11.5001 0.000183105V30.0002Z"/>
<path d="M0 5.625H2V22.5H0V5.625Z"/>
<path d="M0 5.625H2V22.5H0V5.625Z"/>
<path d="M4.00001 1.875H6.00001V26.25H4.00001V1.875Z"/>
<path d="M4.00001 1.875H6.00001V26.25H4.00001V1.875Z"/>
<path id="Rectangle 1" d="M8 0H10V30H8V0Z"/>
<path id="center_bullet" d="M13.5 14.5C13.5 15.8807 12.3807 17 11 17C9.61932 17 8.5 15.8807 8.5 14.5C8.5 13.1193 9.61932 12 11 12C12.3807 12 13.5 13.1193 13.5 14.5Z" fill="white"/>
</svg>
